# xmcd
#
# Track frame offsets:
# 150
# 12981
# 27132
# 44732
# 71708
# 88413
# 99846
# 129376
# 141445
# 166701
# 178658
# 194476
# 211821
#
# Disc length: 3096 seconds
#
#
# Revision: 0
# Processed by: cddbd v1.5.2PL0 Copyright (c) Steve Scherf et al.
# Submitted via: FreeRIP 2.944 
#
DISCID=b70c160d
DTITLE=Bukka White - The Complete Blue Horizon Recordings
DYEAR=2913
DGENRE=Blues
TTITLE0=Bed spring blues
TTITLE1=Aberdeen, Mississippi blues
TTITLE2=Drifting blues
TTITLE3=(Brand new) decoration day
TTITLE4=Baby please don't go
TTITLE5=Give me an old, old lady
TTITLE6=Got sick and tired
TTITLE7=World boogie
TTITLE8=School learning
TTITLE9=Old man Tom
TTITLE10=Gibson Town
TTITLE11=Drifting blues [master version]
TTITLE12=Old man Tom [master version]
EXTD=
EXTT0=
EXTT1=
EXTT2=
EXTT3=
EXTT4=
EXTT5=
EXTT6=
EXTT7=
EXTT8=
EXTT9=
EXTT10=
EXTT11=
EXTT12=
PLAYORDER=
